<svg xmlns="http://www.w3.org/2000/svg" xmlns:xlink="http://www.w3.org/1999/xlink" width="40" zoomAndPan="magnify" viewBox="0 0 30 30.000001" height="40" preserveAspectRatio="xMidYMid meet" version="1.0"><defs><clipPath id="f6913bf3a3"><path d="M 2.5 1.070312 L 27.175781 1.070312 L 27.175781 27.925781 L 2.5 27.925781 Z M 2.5 1.070312 " clip-rule="nonzero"/></clipPath></defs><g clip-path="url(#f6913bf3a3)"><path fill="#000000" d="M 16.695312 22.304688 C 16.539062 22.304688 16.390625 22.34375 16.261719 22.410156 L 14.90625 21.832031 C 14.777344 21.773438 14.632812 21.777344 14.503906 21.832031 L 4.066406 26.402344 L 4.464844 25.539062 C 4.933594 25.488281 5.296875 25.089844 5.296875 24.601562 C 5.296875 24.082031 4.882812 23.660156 4.367188 23.660156 C 3.855469 23.660156 3.4375 24.082031 3.4375 24.601562 C 3.4375 24.769531 3.480469 24.929688 3.558594 25.066406 L 2.585938 27.195312 C 2.5 27.386719 2.535156 27.617188 2.683594 27.769531 C 2.78125 27.871094 2.914062 27.925781 3.046875 27.925781 C 3.117188 27.925781 3.183594 27.910156 3.25 27.882812 L 14.707031 22.863281 L 15.765625 23.316406 C 15.804688 23.800781 16.203125 24.183594 16.695312 24.183594 C 17.207031 24.183594 17.625 23.765625 17.625 23.246094 C 17.625 22.726562 17.207031 22.304688 16.695312 22.304688 Z M 17.882812 7.035156 L 15.296875 1.371094 C 15.214844 1.191406 15.035156 1.074219 14.835938 1.074219 C 14.636719 1.074219 14.457031 1.191406 14.375 1.371094 L 7.789062 15.804688 C 7.292969 15.824219 6.894531 16.238281 6.894531 16.742188 C 6.894531 17.261719 7.3125 17.683594 7.824219 17.683594 C 8.339844 17.683594 8.753906 17.261719 8.753906 16.742188 C 8.753906 16.597656 8.722656 16.457031 8.664062 16.335938 L 14.835938 2.816406 L 16.964844 7.480469 C 16.878906 7.621094 16.832031 7.789062 16.832031 7.96875 C 16.832031 8.488281 17.246094 8.910156 17.761719 8.910156 C 18.273438 8.910156 18.691406 8.488281 18.691406 7.96875 C 18.691406 7.492188 18.339844 7.097656 17.882812 7.035156 Z M 26.992188 27.769531 C 26.894531 27.871094 26.761719 27.925781 26.625 27.925781 C 26.558594 27.925781 26.492188 27.910156 26.425781 27.882812 L 23.292969 26.542969 C 23.144531 26.644531 22.96875 26.703125 22.777344 26.703125 C 22.261719 26.703125 21.84375 26.28125 21.84375 25.761719 C 21.84375 25.242188 22.261719 24.820312 22.777344 24.820312 C 23.234375 24.820312 23.613281 25.15625 23.691406 25.59375 L 25.613281 26.417969 L 20.597656 15.429688 C 20.144531 15.363281 19.800781 14.972656 19.800781 14.5 C 19.800781 13.980469 20.21875 13.558594 20.730469 13.558594 C 21.246094 13.558594 21.660156 13.980469 21.660156 14.5 C 21.660156 14.683594 21.609375 14.855469 21.519531 15 L 27.085938 27.195312 C 27.175781 27.386719 27.136719 27.617188 26.992188 27.769531 " fill-opacity="1" fill-rule="nonzero"/></g></svg>